<?xml version="1.0" encoding="UTF-8"?>
<svg version="1.1" xmlns="http://www.w3.org/2000/svg" width="215" height="208">
<path d="M0 0 C14.03127867 -0.09401057 28.06250754 -0.16398688 42.09403801 -0.20724869 C48.61114383 -0.2280239 55.12803639 -0.25615577 61.64501953 -0.30175781 C67.9474303 -0.34557679 74.24963739 -0.36921257 80.55218887 -0.37950897 C82.94326096 -0.38683612 85.33432333 -0.40114198 87.72530746 -0.42292023 C107.775534 -0.5980981 130.13325419 -0.16971859 145.66796875 14.5234375 C146.43753906 15.34070312 147.20710937 16.15796875 148 17 C148.680625 17.62261719 149.36125 18.24523437 150.0625 18.88671875 C159.1357468 27.31971628 163.21459777 38.00553057 164.28515625 50.265625 C164.6621587 64.09997592 160.16115146 77.48292859 151 88 C141.94455003 96.45297044 130.97850822 101.31190957 119 104 C119.59167969 104.38671875 120.18335937 104.7734375 120.79296875 105.171875 C129.79310345 111.10344828 129.79310345 111.10344828 133 114 C133 114.66 133 115.32 133 116 C133.99 116.33 134.98 116.66 136 117 C145.56156896 127.57734765 151.86826573 141.54116684 158.0625 154.25 C163.62036287 165.60999654 170.47628265 177.84033349 179.6953125 186.61328125 C181 188 181 188 181 190 C181.556875 190.2475 182.11375 190.495 182.6875 190.75 C185 192 185 192 187.21875 193.84765625 C194.55184101 199.52256235 202.78482419 203.29114032 212 204 C212.66 204.99 213.32 205.98 214 207 C166.02138787 210.14245881 166.02138787 210.14245881 150.8125 197.8125 C138.22952477 185.98299634 130.71992567 168.01153914 125 152 C122.051475 144.12596962 118.40619635 136.65569498 114.5625 129.1875 C113.8806665 127.84365234 113.8806665 127.84365234 113.18505859 126.47265625 C108.91711588 118.31133875 104.53074555 111.89121727 96 108 C93.63192182 107.45423198 91.43292106 107.1986058 89 107 C89.53625 107.99 90.0725 108.98 90.625 110 C92.62882232 114.00063826 94.21401092 118.1159125 95.75 122.3125 C97.99122681 128.42447772 100.39257544 134.44555946 102.9375 140.4375 C103.27168945 141.22479492 103.60587891 142.01208984 103.95019531 142.82324219 C104.62641818 144.41454623 105.30301304 146.00569225 105.97998047 147.59667969 C107.6699182 151.57842861 109.34019801 155.56810672 111 159.5625 C111.30284912 160.28300537 111.60569824 161.00351074 111.91772461 161.74584961 C114 166.76982001 114 166.76982001 114 169 C114.66 169 115.32 169 116 169 C116.99 165.7 117.98 162.4 119 159 C119.99 159 120.98 159 122 159 C120.08117342 165.56204117 118.01915909 172.05087946 115.75 178.5 C115.45279053 179.34788086 115.15558105 180.19576172 114.84936523 181.06933594 C111.76517206 189.79077132 108.41560095 198.40389792 105 207 C102.62109375 206.69140625 102.62109375 206.69140625 100 206 C96.1623245 199.93399679 94.04557454 192.94015982 91.5703125 186.2265625 C88.39058704 177.62514903 85.04039554 169.10890568 81.125 160.8125 C77.41313328 152.90670594 74.2748111 144.78513824 71.06201172 136.66796875 C64.66935408 120.60843711 57.97670883 104.66605157 51.35865784 88.69859314 C49.75361676 84.82433331 48.15356142 80.9480537 46.55735779 77.07014465 C45.48457215 74.46401634 44.41035759 71.85847797 43.33609009 69.25296021 C42.58818227 67.43734604 41.8422732 65.62090892 41.09643555 63.80444336 C38.53776868 57.60184363 35.86910303 51.47184128 33.06518555 45.37646484 C31.77814686 42.50503817 30.68160873 39.58827111 29.625 36.625 C24.54319776 23.2693885 18.71043185 11.12531873 5.33203125 4.91015625 C3.22892124 4.08934447 1.20269283 3.48104786 -1 3 C-0.67 2.01 -0.34 1.02 0 0 Z M54 6 C51.45117585 9.54796681 51.92650618 12.38218819 52.50585938 16.52490234 C53.35285195 20.76739775 54.75812651 24.75920414 56.25 28.8125 C56.72578491 30.13495728 56.72578491 30.13495728 57.21118164 31.48413086 C59.60622016 38.08003421 62.20649027 44.56278192 65 51 C66.17373443 53.74702244 67.33706214 56.49839279 68.5 59.25 C68.82572998 60.01505859 69.15145996 60.78011719 69.48706055 61.56835938 C71.52348227 66.38334038 73.49253006 71.22073588 75.40625 76.08554077 C76.5584314 79.01366086 77.72021652 81.9379433 78.8815918 84.86242676 C79.45904497 86.32537848 80.03150601 87.79031084 80.59887695 89.25720215 C81.40258672 91.33410036 82.22301318 93.40368508 83.046875 95.47265625 C83.51963867 96.68187744 83.99240234 97.89109863 84.47949219 99.13696289 C85.75019091 102.05265708 85.75019091 102.05265708 88.01806641 103.41430664 C95.35016514 105.58106013 105.49669728 101.41209468 112 98 C122.85570678 91.30445717 128.9190297 81.26657894 132.52832031 69.23950195 C133.60618367 64.12188262 133.31559454 58.77127909 133.375 53.5625 C133.41238281 52.35400391 133.44976562 51.14550781 133.48828125 49.90039062 C133.62716127 35.49544639 128.35496042 23.52600601 118.3125 13.25 C113.70551315 9.75118026 108.23252854 7.40147003 103 5 C102.29230469 4.64873047 101.58460937 4.29746094 100.85546875 3.93554688 C97.0410833 2.68582688 93.38082051 2.69461793 89.41015625 2.69921875 C88.17693886 2.69279106 88.17693886 2.69279106 86.91880798 2.68623352 C85.184895 2.68050628 83.450958 2.67997809 81.71704102 2.68432617 C79.07461275 2.68748552 76.43330562 2.66400991 73.79101562 2.63867188 C72.1015639 2.63639854 70.41210919 2.63569555 68.72265625 2.63671875 C67.93810562 2.627509 67.15355499 2.61829926 66.3452301 2.60881042 C61.52957702 2.64911655 58.12094012 3.24087713 54 6 Z " fill="#BC9B5B" transform="translate(1,0)"/>
<path d="M0 0 C7.91883684 -0.06943402 15.83754703 -0.12277728 23.75661278 -0.15543652 C27.43355415 -0.17110937 31.11028765 -0.19237658 34.78710938 -0.22631836 C38.33380813 -0.25885497 41.88030664 -0.27684081 45.4271431 -0.28463173 C46.78199035 -0.29018558 48.13682633 -0.30103069 49.49158859 -0.31719017 C51.38539745 -0.33888603 53.27940675 -0.34022473 55.17333984 -0.34057617 C56.25255707 -0.34723801 57.33177429 -0.35389984 58.44369507 -0.36076355 C59.70906601 -0.18218559 59.70906601 -0.18218559 61 0 C61.66 0.99 62.32 1.98 63 3 C62.09378906 3.35191406 61.18757813 3.70382813 60.25390625 4.06640625 C44.43024884 10.47959227 34.66708319 20.18208357 26 35 C23 34 23 34 21.89453125 32.2421875 C21.53746094 31.46101563 21.18039063 30.67984375 20.8125 29.875 C18.60341539 25.25661163 16.35388541 20.67108309 14 16.125 C13.6800708 15.48288574 13.3601416 14.84077148 13.03051758 14.17919922 C10.24381481 8.82788651 7.33154827 5.87982954 1.6875 3.75 C0.3571875 3.37875 0.3571875 3.37875 -1 3 C-0.67 2.01 -0.34 1.02 0 0 Z " fill="#BA9A5B" transform="translate(143,0)"/>
<path d="M0 0 C14.25586133 -0.02336994 28.51171969 -0.04093281 42.76759624 -0.05181217 C49.38698172 -0.05703339 56.00635434 -0.0641173 62.62573242 -0.07543945 C69.01235391 -0.08629527 75.39896303 -0.09228258 81.78559303 -0.09487724 C84.22366341 -0.09672662 86.66173309 -0.10033791 89.0997982 -0.10573006 C92.51145269 -0.11297617 95.92305586 -0.11398942 99.3347168 -0.11352539 C100.34532166 -0.11712067 101.35592651 -0.12071594 102.39715576 -0.12442017 C103.79580116 -0.12235817 103.79580116 -0.12235817 105.22270203 -0.12025452 C106.02927089 -0.12117631 106.83583975 -0.1220981 107.66685009 -0.12304783 C110.18889292 0.00996201 112.53813902 0.44925185 115 1 C115 1.33 115 1.66 115 2 C113.41058594 2.09087891 113.41058594 2.09087891 111.7890625 2.18359375 C110.40102779 2.26800127 109.01300768 2.35264917 107.625 2.4375 C106.57699219 2.49647461 106.57699219 2.49647461 105.5078125 2.55664062 C101.62639508 2.74280134 101.62639508 2.74280134 98 4 C95.21404628 4.07482586 92.45322833 4.09120486 89.66796875 4.0625 C88.83920731 4.05871338 88.01044586 4.05492676 87.15657043 4.05102539 C83.60521457 4.03466018 80.05397295 4.00661851 76.50268555 3.97949219 C73.91195205 3.9613735 71.32123752 3.9492964 68.73046875 3.9375 C67.53178413 3.92505249 67.53178413 3.92505249 66.30888367 3.91235352 C62.39665753 3.89521331 58.82131819 4.02999144 55 5 C55 4.01 55 3.02 55 2 C48.07645153 2.11752733 41.15306263 2.24236017 34.22973633 2.37231445 C31.87364705 2.41567208 29.51752617 2.45734654 27.16137695 2.49731445 C23.77806062 2.55499676 20.39490343 2.61869731 17.01171875 2.68359375 C15.95538742 2.70030624 14.89905609 2.71701874 13.81071472 2.73423767 C12.82992447 2.75418289 11.84913422 2.77412811 10.83862305 2.79467773 C9.97480515 2.81022202 9.11098724 2.8257663 8.22099304 2.84178162 C5.82634575 2.92009739 5.82634575 2.92009739 3 4 C0.8125 3.5625 0.8125 3.5625 -1 3 C-0.67 2.01 -0.34 1.02 0 0 Z " fill="#655739" transform="translate(1,0)"/>
<path d="M0 0 C7.91883684 -0.06943402 15.83754703 -0.12277728 23.75661278 -0.15543652 C27.43355415 -0.17110937 31.11028765 -0.19237658 34.78710938 -0.22631836 C38.33380813 -0.25885497 41.88030664 -0.27684081 45.4271431 -0.28463173 C46.78199035 -0.29018558 48.13682633 -0.30103069 49.49158859 -0.31719017 C51.38539745 -0.33888603 53.27940675 -0.34022473 55.17333984 -0.34057617 C56.25255707 -0.34723801 57.33177429 -0.35389984 58.44369507 -0.36076355 C59.70906601 -0.18218559 59.70906601 -0.18218559 61 0 C61.66 0.99 62.32 1.98 63 3 C44.19 2.67 25.38 2.34 6 2 C6.33 2.99 6.66 3.98 7 5 C4.36 4.34 1.72 3.68 -1 3 C-0.67 2.01 -0.34 1.02 0 0 Z " fill="#6B5C3D" transform="translate(143,0)"/>
<path d="M0 0 C19.8 0 39.6 0 60 0 C60 0.66 60 1.32 60 2 C59.34 2 58.68 2 58 2 C58 2.66 58 3.32 58 4 C57.34 4 56.68 4 56 4 C56 3.01 56 2.02 56 1 C49.07645153 1.11752733 42.15306263 1.24236017 35.22973633 1.37231445 C32.87364705 1.41567208 30.51752617 1.45734654 28.16137695 1.49731445 C24.77806062 1.55499676 21.39490343 1.61869731 18.01171875 1.68359375 C16.95538742 1.70030624 15.89905609 1.71701874 14.81071472 1.73423767 C13.82992447 1.75418289 12.84913422 1.77412811 11.83862305 1.79467773 C10.97480515 1.81022202 10.11098724 1.8257663 9.22099304 1.84178162 C6.82634575 1.92009739 6.82634575 1.92009739 4 3 C1.8125 2.5625 1.8125 2.5625 0 2 C0 1.34 0 0.68 0 0 Z " fill="#9A8252" transform="translate(0,1)"/>
<path d="M0 0 C0.66 0.33 1.32 0.66 2 1 C0.12275039 7.37732315 -1.85671642 13.70695459 -4 20 C-4.33 20 -4.66 20 -5 20 C-4.67 17.69 -4.34 15.38 -4 13 C-4.66 13 -5.32 13 -6 13 C-6 12.34 -6 11.68 -6 11 C-5.34 11 -4.68 11 -4 11 C-3.69255859 9.93458984 -3.69255859 9.93458984 -3.37890625 8.84765625 C-3.10949219 7.92855469 -2.84007813 7.00945312 -2.5625 6.0625 C-2.29566406 5.14597656 -2.02882813 4.22945312 -1.75390625 3.28515625 C-1 1 -1 1 0 0 Z " fill="#605238" transform="translate(121,158)"/>
<path d="M0 0 C1.31223496 3.93670488 0.24296256 6.12488144 -1 10 C-1.33 10 -1.66 10 -2 10 C-1.67 7.69 -1.34 5.38 -1 3 C-1.66 3 -2.32 3 -3 3 C-3 2.34 -3 1.68 -3 1 C-2.01 0.67 -1.02 0.34 0 0 Z " fill="#6D5C3D" transform="translate(118,168)"/>
<path d="M0 0 C2.31 0.33 4.62 0.66 7 1 C7.33 1.99 7.66 2.98 8 4 C5.36 3.34 2.72 2.68 0 2 C0 1.34 0 0.68 0 0 Z " fill="#8B7852" transform="translate(142,1)"/>
</svg>
